<?xml version="1.0" encoding="UTF-8" standalone="no"?>

<svg
   xmlns:svg="http://www.w3.org/2000/svg"
   xmlns="http://www.w3.org/2000/svg"
   width="708.6625"
   height="708.6625">

  <defs
     id="defs6"><clipPath
       clipPathUnits="userSpaceOnUse"
       id="clipPath16"><path
         d="m 0,566.93 566.93,0 L 566.93,0 0,0 0,566.93 z"
         id="path18" /></clipPath></defs>
     <g
     id="g10"
     transform="matrix(1.25,0,0,-1.25,0,708.6625)">
     <g
       id="g12"><g
         id="g14"
         clip-path="url(#clipPath16)"><g
           id="g20"
           transform="translate(392.3789,448.7119)"><path
             d="m 0,0 c 3.227,5.916 5.032,15.32 -3.268,23.62 -9.024,9.025 -21.047,6.739 -27.78,0.006 -6.938,-6.938 -9.627,-18.242 -0.006,-27.863 2.285,-2.285 5.471,-4.267 8.317,-5.172 2.449,-0.789 5.068,0.567 5.845,3.015 0.789,2.449 -0.574,5.074 -3.016,5.845 -1.426,0.457 -3.343,1.672 -4.565,2.894 -6.393,6.394 -2.741,11.953 0.006,14.699 2.712,2.712 8.85,5.763 14.618,-0.005 6.488,-6.488 1.392,-13.304 0.316,-14.577 -1.59,-1.848 -1.485,-4.606 0.239,-6.33 L 4.553,-17.715 c 2.036,-2.035 4.634,-1.96 6.125,-0.468 0.961,0.961 11.556,11.567 11.556,11.567 2.547,2.981 4.126,6.593 4.816,11.199 1.426,11.936 4.384,36.005 5.044,41.364 0.988,8.036 -4.799,13.905 -12.718,12.964 L -21.469,53.99 c -8.018,-0.97 -11.619,-4.548 -14.01,-6.927 l -63.154,-63.165 -31.122,-3.255 c -1.784,-0.193 -3.303,-1.385 -3.899,-3.081 -0.602,-1.688 -0.176,-3.576 1.093,-4.845 l 21.527,-21.538 -50.703,-50.702 c -1.818,-1.818 -1.818,-4.764 -0.001,-6.581 1.819,-1.819 4.765,-1.818 6.583,0 l 53.983,53.983 c 1.818,1.817 1.818,4.763 -0.001,6.581 -0.002,0.002 -0.004,0.003 -0.006,0.005 l -17.898,17.931 23.145,2.42 c 1.275,0.14 2.379,0.8 3.133,1.753 l 63.896,63.908 c 1.905,1.893 3.707,3.682 8.551,4.273 l 40.838,4.915 c 2.279,0.257 2.665,-0.2 2.361,-2.584 C 22.187,41.721 19.229,17.629 17.826,5.834 17.288,2.269 16.05,0.48 15.407,-0.291 L 7.849,-7.849 0,0 z"
             style="fill:#2d97ab;fill-opacity:1;fill-rule:nonzero;stroke:none"
             id="path22" /></g><g
           id="g24"
           transform="translate(189.6206,303.5508)"><path
             d="m 0,0 c -0.228,0.285 -23.104,29.429 -23.104,69.115 -0.006,27.324 11.087,56.373 29.663,77.718 15.196,17.464 42.521,38.29 86.345,38.29 14.723,-0.005 29.113,-3.793 38.599,-6.978 2.432,-0.819 5.074,0.491 5.892,2.933 0.825,2.438 -0.509,5.057 -2.935,5.892 -10.133,3.401 -25.577,7.458 -41.556,7.458 -47.331,0 -76.901,-22.555 -93.371,-41.481 C -20.772,129.614 -32.416,99.058 -32.409,69.115 -32.415,26.208 -8.306,-4.52 -7.282,-5.811 -7.17,-5.944 -7.049,-6.08 -6.926,-6.203 -5.278,-7.851 -2.611,-8.037 -0.737,-6.547 1.269,-4.939 1.602,-2.011 0,0"
             style="fill:#547792;fill-opacity:1;fill-rule:nonzero;stroke:none"
             id="path26" /></g><g
           id="g28"
           transform="translate(314.1523,373.6538)"><path
             d="m 0,0 -35.928,-35.917 -0.059,-0.059 c -1.818,-1.817 -1.819,-4.763 -10e-4,-6.581 1.818,-1.818 4.764,-1.818 6.582,0.001 l 32.7,32.69 21.534,-21.545 c 1.28,-1.28 3.192,-1.707 4.892,-1.081 1.701,0.626 2.886,2.186 3.033,3.992 L 35.36,3.308 77.7,45.67 c 1.819,1.819 1.819,4.765 0,6.583 -1.817,1.817 -4.763,1.817 -6.582,-10e-4 0,0 -43.175,-43.164 -43.251,-43.228 C 26.914,8.223 26.33,7.078 26.225,5.838 L 24.296,-17.716 6.581,0.001 C 4.764,1.818 1.817,1.817 0,0"
             style="fill:#2d97ab;fill-opacity:1;fill-rule:nonzero;stroke:none"
             id="path30" /></g><g
           id="g32"
           transform="translate(407.8379,372.665)"><path
             d="m 0,0 c 0.006,9.837 -1.345,20.119 -3.985,30.568 -0.626,2.485 -3.163,3.993 -5.659,3.368 -2.49,-0.632 -3.998,-3.168 -3.366,-5.658 2.46,-9.697 3.699,-19.212 3.705,-28.278 -0.011,-48.161 -35.998,-115.99 -116.002,-116.002 -39.347,0.012 -65.58,19.007 -74.838,26.956 l 98.211,98.142 c 1.818,1.817 1.819,4.762 0,6.58 -1.817,1.818 -4.763,1.818 -6.581,0 L -210.157,-85.896 c -1.817,-1.817 -1.823,-4.757 -0.006,-6.576 0.012,-0.011 0.029,-0.028 0.041,-0.04 3.559,-3.559 34.344,-32.789 84.815,-32.796 C -38.886,-125.308 0,-52.03 0,0"
             style="fill:#5e5e84;fill-opacity:1;fill-rule:nonzero;stroke:none"
             id="path34" /></g><g
           id="g36"
           transform="translate(199.583,64.9844)"><path
             d="m 0,0 c 0,-1.623 -0.404,-2.98 -1.236,-4.055 -0.808,-1.066 -1.858,-1.922 -3.15,-2.552 -1.26,-0.637 -2.706,-1.09 -4.281,-1.364 -1.575,-0.267 -3.125,-0.396 -4.652,-0.396 -2.52,0 -5.04,0.371 -7.535,1.097 -2.513,0.745 -4.677,1.706 -6.487,2.901 l 1.802,3.521 c 2.051,-1.293 4.062,-2.285 6.049,-2.98 1.995,-0.695 4.055,-1.051 6.171,-1.051 6.147,0 9.224,1.592 9.224,4.774 0,0.775 -0.251,1.406 -0.759,1.89 -0.493,0.485 -1.188,0.889 -2.052,1.195 -0.848,0.307 -1.825,0.557 -2.932,0.735 -1.099,0.178 -2.245,0.348 -3.481,0.51 -1.542,0.209 -3.077,0.476 -4.612,0.775 -1.535,0.299 -2.948,0.742 -4.192,1.34 -1.268,0.598 -2.277,1.39 -3.053,2.383 -0.759,0.994 -1.131,2.302 -1.131,3.941 0,1.399 0.348,2.602 1.058,3.611 0.695,1.01 1.648,1.858 2.819,2.536 1.203,0.679 2.593,1.171 4.176,1.494 1.591,0.316 3.247,0.476 4.935,0.476 2.456,0 4.644,-0.281 6.583,-0.855 1.914,-0.582 3.667,-1.389 5.225,-2.455 L -3.15,14.279 c -1.6,1.108 -3.215,1.891 -4.854,2.344 -1.624,0.443 -3.385,0.662 -5.315,0.662 -0.848,0 -1.801,-0.064 -2.843,-0.219 -1.042,-0.144 -2.02,-0.412 -2.9,-0.783 -0.913,-0.355 -1.647,-0.84 -2.245,-1.422 -0.614,-0.59 -0.929,-1.332 -0.929,-2.22 0,-0.784 0.258,-1.397 0.759,-1.866 0.509,-0.468 1.18,-0.865 2.068,-1.171 0.848,-0.307 1.809,-0.541 2.908,-0.727 1.122,-0.178 2.277,-0.348 3.497,-0.502 C -11.485,8.15 -9.975,7.891 -8.44,7.592 -6.882,7.293 -5.492,6.857 -4.216,6.283 -2.956,5.711 -1.938,4.928 -1.155,3.926 -0.396,2.939 0,1.631 0,0"
             style="fill:#929191;fill-opacity:1;fill-rule:nonzero;stroke:none"
             id="path38" /></g><g
           id="g40"
           transform="translate(231.7129,62.6094)"><path
             d="m 0,0 c -1.163,-1.824 -2.778,-3.287 -4.822,-4.369 -2.028,-1.09 -4.458,-1.623 -7.245,-1.623 -2.164,0 -4.152,0.363 -5.977,1.074 -1.801,0.711 -3.352,1.713 -4.636,2.996 -1.284,1.285 -2.278,2.811 -2.997,4.58 -0.711,1.768 -1.066,3.74 -1.066,5.912 0,2.1 0.315,4.063 0.977,5.856 0.662,1.801 1.592,3.336 2.819,4.621 1.204,1.291 2.682,2.293 4.443,3.019 1.769,0.727 3.723,1.09 5.871,1.09 0.832,0 1.705,-0.095 2.61,-0.299 0.888,-0.201 1.752,-0.5 2.536,-0.904 0.807,-0.42 1.502,-0.904 2.148,-1.469 0.662,-0.566 1.123,-1.244 1.438,-2.019 l 0,4.029 3.674,0 0,-11.154 -3.674,0 c 0,1.236 -0.226,2.351 -0.671,3.377 -0.436,1.01 -1.058,1.89 -1.825,2.625 -0.8,0.726 -1.696,1.301 -2.77,1.705 -1.099,0.41 -2.246,0.613 -3.466,0.613 -1.68,0 -3.134,-0.283 -4.377,-0.857 -1.244,-0.58 -2.278,-1.364 -3.118,-2.358 -0.84,-0.994 -1.47,-2.164 -1.898,-3.498 -0.436,-1.34 -0.638,-2.802 -0.638,-4.4 0,-1.584 0.234,-3.047 0.719,-4.395 0.485,-1.332 1.203,-2.496 2.14,-3.464 0.921,-0.979 2.044,-1.745 3.32,-2.327 1.308,-0.574 2.778,-0.865 4.418,-0.865 2.067,0 3.909,0.404 5.508,1.229 1.616,0.816 2.86,1.898 3.7,3.246 L 0,0 z"
             style="fill:#929191;fill-opacity:1;fill-rule:nonzero;stroke:none"
             id="path42" /></g><path
           d="m 254.045,90.652 -5.557,0 0,5.582 5.557,0 0,-5.582 z m 5.549,-33.349 -16.655,0 0,3.49 6.236,0 0,20.822 -6.236,0 0,3.489 10.379,0 0,-24.311 6.276,0 0,-3.49 z"
           style="fill:#929191;fill-opacity:1;fill-rule:nonzero;stroke:none"
           id="path44" /><g
           id="g46"
           transform="translate(293.6055,73.2637)"><path
             d="m 0,0 c -0.443,3.029 -1.566,5.291 -3.295,6.785 -1.753,1.485 -3.918,2.221 -6.486,2.221 -1.3,0 -2.52,-0.211 -3.643,-0.639 C -14.53,7.947 -15.516,7.334 -16.371,6.543 -17.235,5.75 -17.938,4.789 -18.52,3.674 -19.102,2.545 -19.465,1.324 -19.618,0 L 0,0 z m -19.691,-3.498 c 0.291,-2.932 1.381,-5.281 3.231,-7.035 1.85,-1.744 4.248,-2.625 7.229,-2.625 2.084,0 3.933,0.437 5.573,1.285 1.631,0.855 2.85,1.914 3.658,3.189 l 2.884,-1.97 c -1.39,-1.946 -3.07,-3.432 -4.999,-4.457 -1.915,-1.028 -4.314,-1.535 -7.116,-1.535 -2.149,0 -4.128,0.363 -5.921,1.074 -1.793,0.711 -3.335,1.713 -4.644,2.996 -1.284,1.285 -2.302,2.81 -3.013,4.58 -0.726,1.767 -1.082,3.74 -1.082,5.912 0,2.1 0.323,4.047 0.977,5.824 0.646,1.783 1.575,3.326 2.787,4.627 1.235,1.309 2.714,2.319 4.467,3.045 1.752,0.727 3.715,1.09 5.879,1.09 2.375,0 4.434,-0.395 6.219,-1.195 C -1.793,10.516 -0.331,9.418 0.864,8.004 2.044,6.607 2.916,4.926 3.474,2.988 4.071,1.033 4.33,-1.123 4.33,-3.498 l -24.021,0 z"
             style="fill:#929191;fill-opacity:1;fill-rule:nonzero;stroke:none"
             id="path48" /></g><g
           id="g50"
           transform="translate(328.6191,57.3027)"><path
             d="m 0,0 -4.16,0 0,17.141 c 0,2.478 -0.525,4.4 -1.615,5.773 -1.05,1.373 -2.779,2.053 -5.185,2.053 -1.511,0 -2.892,-0.348 -4.103,-1.043 -1.22,-0.694 -2.253,-1.615 -3.119,-2.785 -0.847,-1.164 -1.502,-2.489 -1.946,-3.991 -0.435,-1.494 -0.662,-3.062 -0.662,-4.693 l 0,-12.455 -4.087,0 0,27.801 4.087,0 0,-6.979 c 1.963,5.098 5.468,7.641 10.532,7.641 C -3.433,28.463 0,24.691 0,17.156 L 0,0 z"
             style="fill:#929191;fill-opacity:1;fill-rule:nonzero;stroke:none"
             id="path52" /></g><g
           id="g54"
           transform="translate(361.4756,62.6094)"><path
             d="m 0,0 c -1.187,-1.824 -2.778,-3.287 -4.813,-4.369 -2.052,-1.09 -4.467,-1.623 -7.278,-1.623 -2.164,0 -4.151,0.363 -5.953,1.074 -1.816,0.711 -3.352,1.713 -4.636,2.996 -1.292,1.285 -2.301,2.811 -3.005,4.58 -0.726,1.768 -1.089,3.74 -1.089,5.912 0,2.1 0.338,4.063 0.985,5.856 0.662,1.801 1.615,3.336 2.819,4.621 1.219,1.291 2.698,2.293 4.458,3.019 1.761,0.727 3.707,1.09 5.865,1.09 0.847,0 1.719,-0.095 2.632,-0.299 0.88,-0.201 1.72,-0.5 2.52,-0.904 0.783,-0.42 1.511,-0.904 2.141,-1.469 0.646,-0.566 1.123,-1.244 1.445,-2.019 l 0,4.029 3.667,0 0,-11.154 -3.667,0 c 0,1.236 -0.226,2.351 -0.687,3.377 -0.435,1.01 -1.05,1.89 -1.825,2.625 -0.775,0.726 -1.687,1.301 -2.778,1.705 -1.074,0.41 -2.205,0.613 -3.448,0.613 -1.681,0 -3.119,-0.283 -4.387,-0.857 -1.243,-0.58 -2.278,-1.364 -3.093,-2.358 -0.864,-0.994 -1.486,-2.164 -1.915,-3.498 -0.428,-1.34 -0.638,-2.802 -0.638,-4.4 0,-1.584 0.259,-3.047 0.728,-4.395 0.492,-1.332 1.186,-2.496 2.132,-3.464 0.913,-0.979 2.035,-1.745 3.327,-2.327 1.308,-0.574 2.779,-0.865 4.402,-0.865 2.076,0 3.909,0.404 5.525,1.229 1.624,0.816 2.851,1.898 3.699,3.246 L 0,0 z"
             style="fill:#929191;fill-opacity:1;fill-rule:nonzero;stroke:none"
             id="path56" /></g><g
           id="g58"
           transform="translate(390.916,73.2637)"><path
             d="m 0,0 c -0.444,3.029 -1.566,5.291 -3.279,6.785 -1.777,1.485 -3.934,2.221 -6.502,2.221 -1.309,0 -2.52,-0.211 -3.643,-0.639 C -14.53,7.947 -15.516,7.334 -16.363,6.543 -17.212,5.75 -17.938,4.789 -18.512,3.674 -19.086,2.545 -19.465,1.324 -19.619,0 L 0,0 z m -19.691,-3.498 c 0.315,-2.932 1.38,-5.281 3.239,-7.035 1.849,-1.744 4.248,-2.625 7.221,-2.625 2.083,0 3.932,0.437 5.573,1.285 1.631,0.855 2.85,1.914 3.658,3.189 l 2.884,-1.97 c -1.39,-1.946 -3.062,-3.432 -5,-4.457 -1.914,-1.028 -4.305,-1.535 -7.115,-1.535 -2.149,0 -4.128,0.363 -5.921,1.074 -1.793,0.711 -3.336,1.713 -4.636,2.996 -1.301,1.285 -2.31,2.81 -3.029,4.58 -0.719,1.767 -1.075,3.74 -1.075,5.912 0,2.1 0.324,4.047 0.978,5.824 0.646,1.783 1.575,3.326 2.787,4.627 1.243,1.309 2.737,2.319 4.458,3.045 1.761,0.727 3.724,1.09 5.888,1.09 2.375,0 4.434,-0.395 6.219,-1.195 1.761,-0.791 3.239,-1.889 4.426,-3.303 1.188,-1.397 2.06,-3.078 2.609,-5.016 0.59,-1.955 0.865,-4.111 0.865,-6.486 l -24.029,0 z"
             style="fill:#929191;fill-opacity:1;fill-rule:nonzero;stroke:none"
             id="path60" /></g><g
           id="g62"
           transform="translate(107.0215,145.2617)"><path
             d="m 0,0 c -0.436,-4.008 -2.027,-7.182 -4.725,-9.531 -2.722,-2.352 -6.098,-3.53 -10.176,-3.53 -2.23,0 -4.273,0.372 -6.131,1.114 -1.865,0.736 -3.441,1.761 -4.749,3.07 -1.317,1.316 -2.326,2.891 -3.053,4.732 -0.719,1.85 -1.083,3.862 -1.083,6.041 l 0,16.51 -8.634,0 0,7.617 8.634,0 0,15.266 8.457,0 0,-15.266 16.024,0 0,-7.617 -16.024,0 0,-16.541 c 0,-2.463 0.606,-4.297 1.817,-5.5 1.204,-1.213 2.779,-1.81 4.742,-1.81 2.398,0 4.191,0.695 5.354,2.091 1.18,1.391 1.874,3.071 2.1,5.034 L 0,0 z"
             style="fill:#4f4f4e;fill-opacity:1;fill-rule:nonzero;stroke:none"
             id="path64" /></g><g
           id="g66"
           transform="translate(143.6016,152.1504)"><path
             d="m 0,0 c 0,1.729 -0.258,3.359 -0.783,4.902 -0.541,1.543 -1.3,2.868 -2.31,3.957 -0.994,1.092 -2.221,1.955 -3.643,2.602 -1.429,0.639 -3.036,0.969 -4.806,0.969 -1.784,0 -3.392,-0.33 -4.797,-0.969 -1.414,-0.647 -2.601,-1.51 -3.586,-2.602 C -20.911,7.77 -21.67,6.445 -22.187,4.902 -22.712,3.359 -22.986,1.729 -22.986,0 c 0,-1.801 0.274,-3.441 0.799,-4.91 0.517,-1.479 1.276,-2.772 2.262,-3.895 0.985,-1.131 2.172,-1.986 3.586,-2.599 1.405,-0.623 3.013,-0.93 4.797,-0.93 1.77,0 3.377,0.307 4.806,0.93 1.422,0.613 2.649,1.468 3.643,2.599 1.01,1.123 1.769,2.416 2.31,3.895 C -0.258,-3.441 0,-1.801 0,0 m 8.473,0.023 c 0,-2.97 -0.468,-5.669 -1.413,-8.099 -0.929,-2.424 -2.27,-4.516 -4.031,-6.278 -1.785,-1.767 -3.877,-3.14 -6.332,-4.119 -2.456,-0.984 -5.202,-1.476 -8.239,-1.476 -2.98,0 -5.661,0.492 -8.149,1.476 -2.431,0.979 -4.547,2.352 -6.3,4.119 -1.777,1.762 -3.11,3.854 -4.063,6.278 -0.928,2.43 -1.405,5.129 -1.405,8.099 0,2.901 0.477,5.575 1.405,8.045 0.953,2.473 2.286,4.596 4.063,6.381 1.753,1.785 3.869,3.166 6.3,4.145 2.488,0.953 5.169,1.437 8.149,1.437 3.037,0 5.783,-0.484 8.239,-1.437 2.455,-0.979 4.547,-2.36 6.332,-4.145 C 4.79,12.664 6.131,10.541 7.06,8.068 8.005,5.598 8.473,2.924 8.473,0.023"
             style="fill:#4f4f4e;fill-opacity:1;fill-rule:nonzero;stroke:none"
             id="path68" /></g><g
           id="g70"
           transform="translate(195.2695,171.2852)"><path
             d="m 0,0 -16.469,-45.586 c -1.203,-3.297 -2.996,-5.557 -5.339,-6.785 -2.358,-1.236 -5.161,-1.85 -8.399,-1.85 -1.115,0 -2.318,0.114 -3.586,0.332 -1.285,0.209 -2.634,0.58 -4.022,1.098 l 1.76,7.777 c 1.179,-0.435 2.262,-0.742 3.231,-0.92 0.985,-0.17 1.866,-0.257 2.617,-0.257 2.536,0 4.264,1.113 5.201,3.351 l 1.503,3.682 L -38.058,0 -29.278,0 -18.787,-28.844 -9.103,0 0,0 z"
             style="fill:#4f4f4e;fill-opacity:1;fill-rule:nonzero;stroke:none"
             id="path72" /></g><g
           id="g74"
           transform="translate(274.6572,162.2383)"><path
             d="m 0,0 c -1.009,0.492 -2.052,0.873 -3.093,1.139 -1.051,0.25 -2.261,0.381 -3.619,0.381 -1.897,0 -3.658,-0.276 -5.298,-0.842 -1.647,-0.557 -3.077,-1.397 -4.289,-2.512 -1.195,-1.121 -2.124,-2.52 -2.81,-4.199 -0.663,-1.68 -0.994,-3.668 -0.994,-5.953 l 0,-9.491 8.561,0 0,-7.617 -25.66,0 0,7.617 8.635,0 0,22.873 -8.635,0 0,7.651 17.099,0 0,-9.572 c 1.414,3.82 3.449,6.509 6.147,8.101 2.737,1.584 5.96,2.367 9.699,2.367 1.172,0 2.383,-0.113 3.676,-0.355 C 0.694,9.338 1.963,8.9 3.183,8.271 L 0,0 z"
             style="fill:#4f4f4e;fill-opacity:1;fill-rule:nonzero;stroke:none"
             id="path76" /></g><g
           id="g78"
           transform="translate(312.5947,152.1504)"><path
             d="m 0,0 c 0,1.729 -0.259,3.359 -0.784,4.902 -0.541,1.543 -1.3,2.868 -2.325,3.957 -0.995,1.092 -2.205,1.955 -3.627,2.602 -1.421,0.639 -3.013,0.969 -4.798,0.969 -1.793,0 -3.384,-0.33 -4.821,-0.969 -1.422,-0.647 -2.61,-1.51 -3.587,-2.602 -0.985,-1.089 -1.72,-2.414 -2.261,-3.957 -0.526,-1.543 -0.784,-3.173 -0.784,-4.902 0,-1.801 0.258,-3.441 0.784,-4.91 0.541,-1.479 1.276,-2.772 2.261,-3.895 0.977,-1.131 2.165,-1.986 3.587,-2.599 1.437,-0.623 3.028,-0.93 4.821,-0.93 1.785,0 3.377,0.307 4.798,0.93 1.422,0.613 2.632,1.468 3.627,2.599 1.025,1.123 1.784,2.416 2.325,3.895 C -0.259,-3.441 0,-1.801 0,0 m 8.456,0.023 c 0,-2.97 -0.443,-5.669 -1.396,-8.099 -0.946,-2.424 -2.303,-4.516 -4.047,-6.278 -1.77,-1.767 -3.869,-3.14 -6.332,-4.119 -2.456,-0.984 -5.202,-1.476 -8.215,-1.476 -2.981,0 -5.694,0.492 -8.15,1.476 -2.455,0.979 -4.539,2.352 -6.307,4.119 -1.785,1.762 -3.118,3.854 -4.055,6.278 -0.945,2.43 -1.414,5.129 -1.414,8.099 0,2.901 0.469,5.575 1.414,8.045 0.937,2.473 2.27,4.596 4.055,6.381 1.768,1.785 3.852,3.166 6.307,4.145 2.456,0.953 5.169,1.437 8.15,1.437 3.013,0 5.759,-0.484 8.215,-1.437 2.463,-0.979 4.562,-2.36 6.332,-4.145 C 4.757,12.664 6.114,10.541 7.06,8.068 8.013,5.598 8.456,2.924 8.456,0.023"
             style="fill:#4f4f4e;fill-opacity:1;fill-rule:nonzero;stroke:none"
             id="path80" /></g><g
           id="g82"
           transform="translate(363.1484,138.5645)"><path
             d="m 0,0 c -2.456,-2.447 -5.032,-4.119 -7.771,-5.016 -2.706,-0.896 -5.645,-1.347 -8.795,-1.347 -3.206,0 -6.106,0.484 -8.707,1.437 -2.601,0.961 -4.822,2.301 -6.623,4.037 -1.818,1.729 -3.207,3.821 -4.168,6.278 -0.977,2.455 -1.47,5.193 -1.47,8.22 0,2.901 0.493,5.575 1.446,8.045 0.977,2.473 2.285,4.58 3.934,6.34 1.647,1.762 3.586,3.135 5.831,4.137 2.229,0.992 4.612,1.486 7.099,1.486 2.625,0 4.878,-0.541 6.833,-1.633 1.922,-1.089 3.336,-2.681 4.208,-4.781 l 0,5.518 7.609,0 0,-17.762 -7.609,0 c 0,3.359 -0.921,6.041 -2.77,8.045 -1.825,1.994 -4.199,3.012 -7.14,3.012 -1.171,0 -2.407,-0.243 -3.675,-0.727 -1.3,-0.469 -2.488,-1.219 -3.562,-2.228 -1.074,-1.01 -1.971,-2.295 -2.682,-3.854 -0.694,-1.559 -1.05,-3.424 -1.05,-5.621 0,-2.125 0.348,-3.957 1.019,-5.508 0.686,-1.543 1.599,-2.81 2.689,-3.812 1.098,-1.002 2.399,-1.745 3.901,-2.254 1.527,-0.5 3.094,-0.76 4.684,-0.76 2.771,0 5.154,0.437 7.173,1.293 2.043,0.855 3.788,1.994 5.266,3.416 L 0,0 z"
             style="fill:#4f4f4e;fill-opacity:1;fill-rule:nonzero;stroke:none"
             id="path84" /></g><g
           id="g86"
           transform="translate(408.9922,133.1445)"><path
             d="m 0,0 -10.96,0 -12.786,15.428 -3.828,-3.926 0,-11.502 -8.473,0 0,53.406 8.473,0 0,-31.427 15.249,16.162 11.631,0 L -18.303,20.629 0,0 z"
             style="fill:#4f4f4e;fill-opacity:1;fill-rule:nonzero;stroke:none"
             id="path88" /></g><g
           id="g90"
           transform="translate(445.5889,156.4316)"><path
             d="m 0,0 c -0.452,2.455 -1.721,4.426 -3.805,5.912 -2.116,1.486 -4.507,2.236 -7.172,2.236 -2.673,0 -5.064,-0.75 -7.205,-2.236 C -20.313,4.426 -21.59,2.455 -22.026,0 L 0,0 z m -22.397,-7.439 c 0.404,-2.641 1.664,-4.823 3.755,-6.567 2.077,-1.736 4.879,-2.609 8.416,-2.609 2.747,0 5.137,0.437 7.172,1.293 2.028,0.855 3.781,1.994 5.275,3.416 l 4.321,-5.961 c -2.455,-2.447 -5.057,-4.119 -7.811,-5.016 -2.721,-0.896 -5.726,-1.347 -8.957,-1.347 -2.948,0 -5.694,0.492 -8.246,1.476 -2.537,0.979 -4.733,2.352 -6.566,4.119 -1.858,1.762 -3.304,3.854 -4.362,6.278 -1.05,2.429 -1.591,5.128 -1.591,8.099 0,2.901 0.492,5.567 1.454,8.006 0.969,2.438 2.342,4.547 4.102,6.34 1.753,1.785 3.87,3.174 6.325,4.176 2.455,0.992 5.153,1.486 8.133,1.486 3.07,0 5.888,-0.518 8.384,-1.576 2.52,-1.041 4.66,-2.561 6.446,-4.563 1.8,-1.986 3.181,-4.418 4.191,-7.302 1.018,-2.875 1.527,-6.129 1.527,-9.748 l -31.968,0 z"
             style="fill:#4f4f4e;fill-opacity:1;fill-rule:nonzero;stroke:none"
             id="path92" /></g><g
           id="g94"
           transform="translate(498.46,145.2617)"><path
             d="m 0,0 c -0.437,-4.008 -2.003,-7.182 -4.709,-9.531 -2.722,-2.352 -6.13,-3.53 -10.185,-3.53 -2.221,0 -4.273,0.372 -6.138,1.114 -1.865,0.736 -3.441,1.761 -4.758,3.07 -1.3,1.316 -2.317,2.891 -3.021,4.732 -0.743,1.85 -1.114,3.862 -1.114,6.041 l 0,16.51 -8.626,0 0,7.617 8.626,0 0,15.266 8.488,0 0,-15.266 16.001,0 0,-7.617 -16.001,0 0,-16.541 c 0,-2.463 0.59,-4.297 1.802,-5.5 1.203,-1.213 2.779,-1.81 4.741,-1.81 2.399,0 4.184,0.695 5.372,2.091 1.154,1.391 1.849,3.071 2.091,5.034 L 0,0 z"
             style="fill:#4f4f4e;fill-opacity:1;fill-rule:nonzero;stroke:none"
             id="path96" /></g></g></g></g>

</svg>
