<?xml version="1.0" encoding="UTF-8" standalone="no"?>
<svg width="140px" height="170px" viewBox="0 0 140 170" version="1.1" xmlns="http://www.w3.org/2000/svg" xmlns:xlink="http://www.w3.org/1999/xlink" xmlns:sketch="http://www.bohemiancoding.com/sketch/ns">
    <!-- Generator: Sketch 3.1 (8751) - http://www.bohemiancoding.com/sketch -->
    <title>Slice 2</title>
    <desc>Created with Sketch.</desc>
    <defs></defs>
    <g id="Page-1" stroke="none" stroke-width="1" fill="none" fill-rule="evenodd" sketch:type="MSPage">
        <rect id="Rectangle-1" stroke="#979797" fill="#5E5E84" sketch:type="MSShapeGroup" x="0" y="0" width="140" height="170"></rect>
        <g id="Group" sketch:type="MSLayerGroup" transform="translate(7.000000, 18.000000)" fill="#FFFFFF">
            <path d="M95.8899937,17.5137479 C96.8479855,15.7557061 97.3838315,12.9611448 94.9198303,10.4946562 C92.2408969,7.81272136 88.6716576,8.49204581 86.672848,10.4928732 C84.6131804,12.55462 83.8149034,15.9137991 86.6710667,18.7728457 C87.3494092,19.451873 88.2952295,20.0408586 89.1401147,20.309795 C89.8671435,20.54426 90.6446398,20.1413011 90.8753059,19.4138356 C91.1095345,18.6860729 90.7049039,17.9060087 89.9799532,17.6768927 C89.55662,17.5410873 88.9875247,17.180029 88.6247525,16.8168905 C86.7268779,14.9168028 87.8110384,13.2648498 88.6265337,12.4488284 C89.4316387,11.6429107 91.2538121,10.7362533 92.9661445,12.4503142 C94.8922216,14.3783357 93.3793842,16.403828 93.0599547,16.782122 C92.5879352,17.3312871 92.6191063,18.1508746 93.1309061,18.663191 L97.2416319,22.7780666 C97.8460544,23.382802 98.6173164,23.3605145 99.0599461,22.9171409 C99.3452358,22.6315631 102.490548,19.4798067 102.490548,19.4798067 C103.24667,18.593951 103.715424,17.5205827 103.920263,16.1518301 C104.343596,12.6048412 105.22173,5.4523215 105.417663,3.85980194 C105.710968,1.47176552 103.992995,-0.272309364 101.642101,0.007325065 L89.5165428,1.46968535 C87.1362583,1.75793763 86.067238,2.82120223 85.3574275,3.52816323 L66.6090502,22.2987357 L57.3699363,23.2660153 C56.8403244,23.3233686 56.3893825,23.677592 56.2124494,24.1815877 C56.0337351,24.6832061 56.1602007,25.244258 56.5369257,25.6213633 L62.9275949,32.0217526 L47.8755162,47.088729 C47.3358109,47.6289792 47.3358109,48.5044341 47.8752193,49.044387 C48.4152215,49.5849344 49.2897935,49.5846372 49.8294988,49.044387 L65.8553033,33.0024047 C66.3950086,32.4624517 66.3950086,31.5869968 65.8550064,31.0467467 C65.8544127,31.0461524 65.853819,31.0458552 65.8532252,31.0452609 L60.5398887,25.716754 L67.4108896,24.9976091 C67.7893958,24.9560057 68.1171377,24.7598753 68.3409759,24.4766749 L87.309629,5.48530707 C87.8751618,4.92276937 88.4101172,4.39113707 89.848144,4.2155112 L101.971624,2.75493392 C102.648185,2.67856192 102.762776,2.81436738 102.672528,3.52281422 C102.476595,5.11563095 101.598461,12.2749855 101.181956,15.7800738 C101.022241,16.8394753 100.654719,17.3711076 100.463833,17.6002235 L98.2201076,19.846214 L95.8899937,17.5137479 L95.8899937,17.5137479 Z" id="path22" sketch:type="MSShapeGroup"></path>
            <path d="M35.6976207,60.65088 C35.6299349,60.5661873 28.8387913,51.9055435 28.8387913,40.1121621 C28.8370101,31.9923628 32.1301626,23.3599499 37.6447754,17.0169139 C42.1559757,11.8271841 50.2678833,5.63837794 63.2778096,5.63837794 C67.6485915,5.63986378 71.9205165,6.76553351 74.7366027,7.71201136 C75.4585847,7.95539138 76.242909,7.56610222 76.4857467,6.84041967 C76.7306625,6.1159258 76.3346411,5.33764464 75.6144402,5.08950994 C72.6062807,4.07884396 68.0214572,2.87323622 63.2778096,2.87323622 C49.2267685,2.87323622 40.4483931,9.57584467 35.5589835,15.200033 C29.5310866,22.1338376 26.0743601,31.2140816 26.0764382,40.1121621 C26.074657,52.8627194 33.2318383,61.9940762 33.5358307,62.3777192 C33.5690799,62.4172424 33.6050009,62.4576572 33.6415156,62.4942087 C34.1307534,62.9839404 34.9224994,63.0392136 35.4788293,62.5964343 C36.0743457,62.1185893 36.1732026,61.2484834 35.6976207,60.65088" id="path26" sketch:type="MSShapeGroup"></path>
            <path d="M72.6670495,39.8185608 L62.0011898,50.4919187 L61.9836746,50.5094515 C61.4439693,51.0494045 61.4436724,51.9248594 61.9833778,52.4651095 C62.5230831,53.0053597 63.3976551,53.0053597 63.9373604,52.4648124 L73.6449314,42.7504133 L80.0376786,49.1528828 C80.4176692,49.533257 80.9852801,49.6601474 81.489955,49.4741207 C81.9949268,49.2880939 82.3467149,48.8245129 82.3903545,48.2878288 L83.1642884,38.8355313 L95.7336632,26.2469302 C96.2736654,25.7063829 96.2736654,24.830928 95.7336632,24.2906778 C95.1942547,23.7507249 94.3196827,23.7507249 93.7796805,24.290975 C93.7796805,24.290975 80.9624213,37.1179043 80.9398593,37.136923 C80.6569445,37.3749541 80.4835738,37.7152106 80.4524027,38.0836981 L79.8797451,45.0831766 L74.6207353,39.8182636 C74.0813268,39.2783106 73.2064579,39.2786078 72.6670495,39.8185608" id="path30" sketch:type="MSShapeGroup"></path>
            <path d="M100.47927,40.1123998 C100.481051,37.1891651 100.079983,34.1336909 99.2962527,31.0285898 C99.1104136,30.290129 98.3572604,29.8420007 97.6162788,30.0277303 C96.8770785,30.21554 96.4294021,30.9691563 96.6170225,31.7091029 C97.3473168,34.5907342 97.7151358,37.418281 97.716917,40.1123998 C97.7136514,54.4242741 87.0302766,74.5808349 63.2796799,74.5844009 C51.5988298,74.5808349 43.8111017,68.936142 41.0627013,66.5739592 L70.2183666,37.409366 C70.758072,36.869413 70.7583688,35.9942553 70.2183666,35.4540052 C69.6789582,34.913755 68.8043862,34.913755 68.2646809,35.4540052 L38.0904627,65.6378822 C37.5510543,66.1778352 37.5492731,67.051507 38.0886815,67.5920543 C38.0922439,67.5953232 38.0972907,67.600375 38.1008531,67.603941 C39.1574049,68.6615594 48.2964745,77.3477596 63.2796799,77.3498398 C88.935276,77.3498398 100.47927,55.5740144 100.47927,40.1123998" id="path34" sketch:type="MSShapeGroup"></path>
            <path d="M38.6551346,131.545013 C38.6551346,132.027315 38.5352001,132.430571 38.2882063,132.750026 C38.0483372,133.066807 37.7366262,133.321182 37.3530733,133.508397 C36.9790201,133.697693 36.5497495,133.83231 36.082183,133.913733 C35.6146165,133.993077 35.1544717,134.031412 34.7011549,134.031412 C33.9530485,134.031412 33.2049421,133.921163 32.4642574,133.705419 C31.7182291,133.48403 31.0758075,133.198452 30.5384772,132.843337 L31.0734326,131.797011 C31.6823081,132.181248 32.2793089,132.476038 32.8691848,132.682569 C33.4614357,132.889101 34.072983,132.994892 34.7011549,132.994892 C36.5260001,132.994892 37.4394617,132.521802 37.4394617,131.576215 C37.4394617,131.345911 37.364948,131.158398 37.2141392,131.014569 C37.0677835,130.870443 36.8614605,130.750388 36.6049669,130.659454 C36.3532231,130.568224 36.0631835,130.493932 35.734551,130.441036 C35.4082935,130.388141 35.0680832,130.337622 34.7011549,130.289481 C34.243385,130.227373 33.7876932,130.148029 33.3320014,130.059176 C32.8763096,129.970323 32.4568357,129.838678 32.0875324,129.660972 C31.7111042,129.483266 31.4115648,129.24791 31.1811956,128.952823 C30.955873,128.657438 30.8454383,128.268743 30.8454383,127.781686 C30.8454383,127.365949 30.9487482,127.008457 31.1595242,126.708615 C31.3658472,126.408476 31.648762,126.156478 31.996394,125.954999 C32.3535258,125.753222 32.7661717,125.607016 33.2361132,125.511031 C33.7084296,125.417126 34.2000423,125.369579 34.7011549,125.369579 C35.4302617,125.369579 36.0798081,125.453083 36.6554344,125.623657 C37.223639,125.796609 37.7440479,126.036423 38.2065677,126.353203 L37.7200016,127.301761 C37.2450135,126.9725 36.7655723,126.739818 36.2790062,126.605201 C35.7968932,126.473556 35.2741094,126.408476 34.7011549,126.408476 C34.4494111,126.408476 34.1664963,126.427495 33.8571602,126.473556 C33.5478242,126.516348 33.2574877,126.595989 32.9962442,126.706238 C32.725204,126.811732 32.5073032,126.955858 32.3297764,127.12881 C32.1474996,127.304138 32.0539863,127.524636 32.0539863,127.788521 C32.0539863,128.0215 32.1305782,128.203664 32.2793089,128.343035 C32.4304145,128.48211 32.6296126,128.600085 32.8932311,128.691018 C33.1449748,128.782248 33.4302646,128.851786 33.7565221,128.907059 C34.0896076,128.959955 34.4324897,129.010473 34.7946682,129.056237 C35.2456101,129.123099 35.6938802,129.200066 36.149572,129.288919 C36.6120917,129.377772 37.0247377,129.507337 37.4035408,129.677911 C37.777594,129.84789 38.0798052,130.080572 38.3122525,130.378334 C38.5375751,130.671638 38.6551346,131.060333 38.6551346,131.545013" id="path38" sketch:type="MSShapeGroup"></path>
            <path d="M48.1934614,132.250785 C47.8482044,132.792818 47.3687632,133.227574 46.7619658,133.549109 C46.1599183,133.873022 45.4385299,134.031412 44.6111599,134.031412 C43.9687384,134.031412 43.3785656,133.92354 42.8367822,133.712254 C42.3021236,133.500968 41.8416819,133.203206 41.4605039,132.821941 C41.0793259,132.440081 40.7842395,131.986603 40.5707917,131.460915 C40.3597188,130.935523 40.2543308,130.349509 40.2543308,129.704061 C40.2543308,129.08001 40.3478441,128.496671 40.5443704,127.96385 C40.7408968,127.428651 41.0169837,126.9725 41.3812403,126.59064 C41.7386689,126.206997 42.1774392,125.909235 42.7002231,125.693492 C43.2253819,125.477451 43.8054612,125.369579 44.4431328,125.369579 C44.6901267,125.369579 44.9492921,125.39781 45.2179573,125.458432 C45.4815758,125.518163 45.7380694,125.607016 45.9708136,125.727071 C46.2103857,125.851882 46.4167087,125.995711 46.6084852,126.16361 C46.8050116,126.331807 46.9418676,126.533286 47.0353809,126.763591 L47.0353809,125.566304 L48.1260725,125.566304 L48.1260725,128.880908 L47.0353809,128.880908 C47.0353809,128.513609 46.9682888,128.182268 46.8361827,127.877374 C46.7067484,127.577235 46.5220967,127.315728 46.2943993,127.09731 C46.0569052,126.881566 45.7909118,126.710695 45.472076,126.59064 C45.1458185,126.468801 44.8053113,126.408476 44.4431328,126.408476 C43.9443952,126.408476 43.5127497,126.492574 43.1437433,126.663148 C42.77444,126.835506 42.4674789,127.068485 42.2181101,127.363869 C41.9687413,127.659253 41.7817147,128.006939 41.6546553,128.40336 C41.525221,128.801564 41.4652538,129.236023 41.4652538,129.710896 C41.4652538,130.181609 41.5347208,130.616365 41.6787016,131.016947 C41.8226824,131.412773 42.0358333,131.758676 42.3139983,132.046334 C42.5874134,132.337261 42.9207957,132.564891 43.2995988,132.737842 C43.6879016,132.908416 44.124297,132.994892 44.6111599,132.994892 C45.2247853,132.994892 45.7716154,132.874837 46.2463067,132.629674 C46.7260448,132.387185 47.0953481,132.06565 47.3447169,131.665068 L48.1934614,132.250785 L48.1934614,132.250785 Z" id="path42" sketch:type="MSShapeGroup"></path>
            <path d="M54.8231387,123.917441 L53.1734453,123.917441 L53.1734453,122.258654 L54.8231387,122.258654 L54.8231387,123.917441 L54.8231387,123.917441 Z M56.4704571,133.827674 L51.526127,133.827674 L51.526127,132.79056 L53.3773934,132.79056 L53.3773934,126.602942 L51.526127,126.602942 L51.526127,125.566126 L54.6073159,125.566126 L54.6073159,132.79056 L56.4704571,132.79056 L56.4704571,133.827674 L56.4704571,133.827674 Z" id="path44" sketch:type="MSShapeGroup"></path>
            <path d="M66.56737,129.084676 C66.4358576,128.184556 66.1024753,127.512363 65.5891912,127.068396 C65.0687823,126.627102 64.4260639,126.408387 63.6637078,126.408387 C63.2777799,126.408387 62.9156014,126.471089 62.5822191,126.598277 C62.2538835,126.723087 61.9611721,126.905251 61.7073502,127.14031 C61.4508566,127.375964 61.2421587,127.661541 61.0693817,127.992883 C60.8966048,128.328385 60.7888418,128.691226 60.7434211,129.084676 L66.56737,129.084676 L66.56737,129.084676 Z M60.7217498,130.124167 C60.8081382,130.995461 61.1317239,131.693507 61.680929,132.214739 C62.2301341,132.732999 62.9420227,132.994803 63.826985,132.994803 C64.4456571,132.994803 64.9945653,132.864941 65.4814282,132.612943 C65.9656193,132.358865 66.3275009,132.044165 66.56737,131.665276 L67.4235362,132.250696 C67.0108902,132.828984 66.5121526,133.270574 65.939495,133.575171 C65.3709935,133.880659 64.6588081,134.031323 63.826985,134.031323 C63.1890165,134.031323 62.6015155,133.923451 62.0692319,133.712165 C61.5369482,133.500879 61.0791784,133.203117 60.6905787,132.821852 C60.3094006,132.439992 60.0071894,131.986812 59.7961165,131.460825 C59.5805906,130.935731 59.4749058,130.34942 59.4749058,129.703972 C59.4749058,129.079921 59.570794,128.501336 59.7649454,127.97327 C59.9567219,127.443421 60.2325119,126.984892 60.5923155,126.598277 C60.958947,126.209285 61.3980142,125.909146 61.9184231,125.693402 C62.4385352,125.477362 63.0212863,125.36949 63.6637078,125.36949 C64.3687684,125.36949 64.9800188,125.486871 65.5099275,125.724605 C66.0350863,125.959664 66.4691068,126.285954 66.8238636,126.706149 C67.1741674,127.121291 67.4330359,127.62083 67.5986881,128.19674 C67.775918,128.777702 67.8528067,129.418395 67.8528067,130.124167 L60.7217498,130.124167 L60.7217498,130.124167 Z" id="path48" sketch:type="MSShapeGroup"></path>
            <path d="M76.9617739,133.827763 L75.7268046,133.827763 L75.7268046,128.734018 C75.7268046,127.997638 75.5709491,127.426482 75.2473634,127.018471 C74.9356524,126.610461 74.4223683,126.408387 73.7081048,126.408387 C73.2595379,126.408387 72.8495637,126.511801 72.490057,126.718332 C72.1278785,126.924567 71.8212143,127.198258 71.5641269,127.545943 C71.3126801,127.891846 71.1182318,128.285593 70.9864225,128.731938 C70.8572851,129.175906 70.7898962,129.641864 70.7898962,130.126544 L70.7898962,133.827763 L69.5765982,133.827763 L69.5765982,125.566215 L70.7898962,125.566215 L70.7898962,127.640145 C71.3726473,126.125187 72.4131683,125.36949 73.9165059,125.36949 C75.9426274,125.36949 76.9617739,126.490405 76.9617739,128.729561 L76.9617739,133.827763 L76.9617739,133.827763 Z" id="path52" sketch:type="MSShapeGroup"></path>
            <path d="M86.7158047,132.250785 C86.3634228,132.792818 85.8911065,133.227574 85.2869809,133.549109 C84.6778085,133.873022 83.9608732,134.031412 83.1263784,134.031412 C82.4839568,134.031412 81.8940809,133.92354 81.3591254,133.712254 C80.8200139,133.500968 80.3640252,133.203206 79.9828472,132.821941 C79.5992942,132.440081 79.2997548,131.986603 79.09076,131.460915 C78.8752341,130.935523 78.7674712,130.349509 78.7674712,129.704061 C78.7674712,129.08001 78.8678124,128.496671 79.0598858,127.96385 C79.2564121,127.428651 79.539327,126.9725 79.8967556,126.59064 C80.2586372,126.206997 80.6977044,125.909235 81.2201914,125.693492 C81.7429753,125.477451 82.3206797,125.369579 82.96132,125.369579 C83.2127668,125.369579 83.4716354,125.39781 83.7426755,125.458432 C84.003919,125.518163 84.2532878,125.607016 84.4907819,125.727071 C84.7232293,125.851882 84.9393489,125.995711 85.1263755,126.16361 C85.318152,126.331807 85.4597578,126.533286 85.5553492,126.763591 L85.5553492,125.566304 L86.6439627,125.566304 L86.6439627,128.880908 L85.5553492,128.880908 C85.5553492,128.513609 85.4882571,128.182268 85.3514011,127.877374 C85.2222637,127.577235 85.0396901,127.315728 84.8096177,127.09731 C84.5795453,126.881566 84.3088021,126.710695 83.9849195,126.59064 C83.6660837,126.468801 83.3303264,126.408476 82.96132,126.408476 C82.4622855,126.408476 82.0353899,126.492574 81.6589617,126.663148 C81.2899553,126.835506 80.9826973,127.068485 80.7407502,127.363869 C80.4842566,127.659253 80.2996049,128.006939 80.1722487,128.40336 C80.0451894,128.801564 79.9828472,129.236023 79.9828472,129.710896 C79.9828472,130.181609 80.0597359,130.616365 80.1989668,131.016947 C80.3450257,131.412773 80.5510518,131.758676 80.8318886,132.046334 C81.1029287,132.337261 81.4360142,132.564891 81.8195671,132.737842 C82.20787,132.908416 82.6445622,132.994892 83.1263784,132.994892 C83.7426755,132.994892 84.2868339,132.874837 84.7665719,132.629674 C85.2486849,132.387185 85.6129415,132.06565 85.8646852,131.665068 L86.7158047,132.250785 L86.7158047,132.250785 Z" id="path56" sketch:type="MSShapeGroup"></path>
            <path d="M95.455706,129.084676 C95.3238968,128.184556 94.9908113,127.512363 94.4822771,127.068396 C93.9547434,126.627102 93.3143999,126.408387 92.5520439,126.408387 C92.1634442,126.408387 91.8039375,126.471089 91.4705552,126.598277 C91.1422196,126.723087 90.8495081,126.905251 90.5980612,127.14031 C90.3460206,127.375964 90.1304948,127.661541 89.9600927,127.992883 C89.7896907,128.328385 89.6771779,128.691226 89.6314603,129.084676 L95.455706,129.084676 L95.455706,129.084676 Z M89.6100858,130.124167 C89.7035991,130.995461 90.0197631,131.693507 90.57164,132.214739 C91.1205482,132.732999 91.8327337,132.994803 92.7153211,132.994803 C93.3336963,132.994803 93.8826045,132.864941 94.3697643,132.612943 C94.8539554,132.358865 95.215837,132.044165 95.455706,131.665276 L96.3118722,132.250696 C95.8992262,132.828984 95.4028636,133.270574 94.8275342,133.575171 C94.2593295,133.880659 93.5495191,134.031323 92.7153211,134.031323 C92.0773526,134.031323 91.4898516,133.923451 90.9575679,133.712165 C90.4252843,133.500879 89.9672176,133.203117 89.5812897,132.821852 C89.1950649,132.439992 88.8955255,131.986812 88.6820777,131.460825 C88.4686298,130.935731 88.362945,130.34942 88.362945,129.703972 C88.362945,129.079921 88.4591301,128.501336 88.6532815,127.97327 C88.845058,127.443421 89.120848,126.984892 89.4806515,126.598277 C89.849658,126.209285 90.2931782,125.909146 90.8040874,125.693402 C91.3268712,125.477362 91.9096224,125.36949 92.5520439,125.36949 C93.2571045,125.36949 93.8683549,125.486871 94.3982636,125.724605 C94.9210475,125.959664 95.3598178,126.285954 95.7121997,126.706149 C96.0648784,127.121291 96.3237469,127.62083 96.4867273,128.19674 C96.6618792,128.777702 96.7435177,129.418395 96.7435177,130.124167 L89.6100858,130.124167 L89.6100858,130.124167 Z" id="path60" sketch:type="MSShapeGroup"></path>
            <path d="M11.1766229,107.689224 C11.0471886,108.880271 10.5748722,109.82348 9.77392339,110.521526 C8.96584975,111.220463 7.96362468,111.570527 6.75299854,111.570527 C6.09098376,111.570527 5.48448322,111.45998 4.93290319,111.239482 C4.37924509,111.020767 3.91138173,110.716171 3.52307889,110.327179 C3.13210424,109.936106 2.83256482,109.468068 2.61674206,108.920983 C2.40329425,108.371223 2.29523443,107.773323 2.29523443,107.125795 L2.29523443,102.219563 L-0.267920555,102.219563 L-0.267920555,99.9560398 L2.29523443,99.9560398 L2.29523443,95.4194838 L4.80584385,95.4194838 L4.80584385,99.9560398 L9.56285052,99.9560398 L9.56285052,102.219563 L4.80584385,102.219563 L4.80584385,107.135007 C4.80584385,107.86693 4.98574563,108.411935 5.34525231,108.769428 C5.70268092,109.129891 6.17024741,109.3073 6.75299854,109.3073 C7.46488708,109.3073 7.99717072,109.100769 8.34242775,108.685924 C8.69273154,108.272564 8.89875766,107.773323 8.96584975,107.189983 L11.1766229,107.689224 L11.1766229,107.689224 Z" id="path64" sketch:type="MSShapeGroup"></path>
            <path d="M22.0360699,105.642128 C22.0360699,105.128326 21.9594781,104.643943 21.8036226,104.185414 C21.6430172,103.726885 21.4176947,103.333138 21.1178584,103.009523 C20.822772,102.685016 20.4585154,102.428561 20.0363697,102.236294 C19.6121458,102.046404 19.1350796,101.948338 18.6096239,101.948338 C18.0800121,101.948338 17.602649,102.046404 17.18555,102.236294 C16.7657792,102.428561 16.4133973,102.685016 16.1209827,103.009523 C15.8282712,103.333138 15.6029487,103.726885 15.4494681,104.185414 C15.2936126,104.643943 15.2122709,105.128326 15.2122709,105.642128 C15.2122709,106.177326 15.2936126,106.664681 15.4494681,107.101219 C15.6029487,107.54073 15.8282712,107.924967 16.1209827,108.258686 C16.4133973,108.594782 16.7657792,108.84886 17.18555,109.031024 C17.602649,109.216159 18.0800121,109.30739 18.6096239,109.30739 C19.1350796,109.30739 19.6121458,109.216159 20.0363697,109.031024 C20.4585154,108.84886 20.822772,108.594782 21.1178584,108.258686 C21.4176947,107.924967 21.6430172,107.54073 21.8036226,107.101219 C21.9594781,106.664681 22.0360699,106.177326 22.0360699,105.642128 M24.5514292,105.635293 C24.5514292,106.51788 24.4124952,107.319935 24.1319553,108.042051 C23.8561653,108.762385 23.4580658,109.384059 22.9352819,109.907667 C22.4053732,110.432762 21.7843262,110.840773 21.0555162,111.1317 C20.3264093,111.424112 19.5112109,111.570318 18.6096239,111.570318 C17.7249584,111.570318 16.9290563,111.424112 16.1904497,111.1317 C15.4687645,110.840773 14.8405927,110.432762 14.3201837,109.907667 C13.79265,109.384059 13.3969255,108.762385 13.1140106,108.042051 C12.8385175,107.319935 12.6969116,106.51788 12.6969116,105.635293 C12.6969116,104.773211 12.8385175,103.978585 13.1140106,103.244582 C13.3969255,102.509688 13.79265,101.878801 14.3201837,101.348358 C14.8405927,100.817914 15.4687645,100.407526 16.1904497,100.116599 C16.9290563,99.8333988 17.7249584,99.6895698 18.6096239,99.6895698 C19.5112109,99.6895698 20.3264093,99.8333988 21.0555162,100.116599 C21.7843262,100.407526 22.4053732,100.817914 22.9352819,101.348358 C23.4580658,101.878801 23.8561653,102.509688 24.1319553,103.244582 C24.4124952,103.978585 24.5514292,104.773211 24.5514292,105.635293" id="path68" sketch:type="MSShapeGroup"></path>
            <path d="M37.3745962,99.9558912 L32.4854834,113.50256 C32.1283517,114.48232 31.596068,115.153918 30.9005072,115.51884 C30.2004934,115.886139 29.3683735,116.068599 28.4071161,116.068599 C28.0761087,116.068599 27.718977,116.034722 27.3425489,115.96994 C26.961074,115.907832 26.5605996,115.797583 26.1485473,115.64365 L26.6710343,113.33258 C27.0210412,113.461848 27.3425489,113.553078 27.6302136,113.605974 C27.9226282,113.656492 28.1841685,113.682346 28.4071161,113.682346 C29.1599724,113.682346 29.6729596,113.351599 29.9511246,112.686538 L30.3973166,111.592368 L26.0764085,99.9558912 L28.6829061,99.9558912 L31.7973443,108.527385 L34.6722103,99.9558912 L37.3745962,99.9558912 L37.3745962,99.9558912 Z" id="path72" sketch:type="MSShapeGroup"></path>
            <path d="M60.9422333,102.644334 C60.6426939,102.498128 60.333061,102.384907 60.0240218,102.30586 C59.7120139,102.231569 59.3528041,102.19264 58.9496579,102.19264 C58.3865,102.19264 57.8637162,102.274658 57.3768533,102.442855 C56.8879123,102.608377 56.4633916,102.857997 56.1035881,103.189339 C55.7488313,103.522463 55.4730413,103.9382 55.2693901,104.437144 C55.0725669,104.936385 54.9743037,105.527154 54.9743037,106.206181 L54.9743037,109.026596 L57.5157873,109.026596 L57.5157873,111.290119 L49.8981643,111.290119 L49.8981643,109.026596 L52.4616162,109.026596 L52.4616162,102.229488 L49.8981643,102.229488 L49.8981643,99.9558615 L54.9743037,99.9558615 L54.9743037,102.800347 C55.3940745,101.665168 55.9982001,100.866085 56.7991489,100.392995 C57.6116756,99.9222816 58.5684799,99.6895996 59.6784679,99.6895996 C60.0263967,99.6895996 60.3859034,99.7231795 60.7697533,99.795094 C61.1482595,99.8693858 61.5249845,99.9995451 61.887163,100.186463 L60.9422333,102.644334 L60.9422333,102.644334 Z" id="path76" sketch:type="MSShapeGroup"></path>
            <path d="M72.2046485,105.642128 C72.2046485,105.128326 72.1277598,104.643943 71.9719043,104.185414 C71.8112989,103.726885 71.5859764,103.333138 71.2816871,103.009523 C70.9863038,102.685016 70.627094,102.428561 70.2049482,102.236294 C69.7830994,102.046404 69.3104861,101.948338 68.7805774,101.948338 C68.2482938,101.948338 67.7759774,102.046404 67.3493786,102.236294 C66.9272329,102.428561 66.5745542,102.685016 66.2845145,103.009523 C65.9920999,103.333138 65.7739022,103.726885 65.6132968,104.185414 C65.4571445,104.643943 65.3805526,105.128326 65.3805526,105.642128 C65.3805526,106.177326 65.4571445,106.664681 65.6132968,107.101219 C65.7739022,107.54073 65.9920999,107.924967 66.2845145,108.258686 C66.5745542,108.594782 66.9272329,108.84886 67.3493786,109.031024 C67.7759774,109.216159 68.2482938,109.30739 68.7805774,109.30739 C69.3104861,109.30739 69.7830994,109.216159 70.2049482,109.031024 C70.627094,108.84886 70.9863038,108.594782 71.2816871,108.258686 C71.5859764,107.924967 71.8112989,107.54073 71.9719043,107.101219 C72.1277598,106.664681 72.2046485,106.177326 72.2046485,105.642128 M74.714961,105.635293 C74.714961,106.51788 74.5834487,107.319935 74.3005339,108.042051 C74.0196971,108.762385 73.6168477,109.384059 73.0991106,109.907667 C72.5736549,110.432762 71.9505298,110.840773 71.2193449,111.1317 C70.490238,111.424112 69.6750395,111.570318 68.7805774,111.570318 C67.8956151,111.570318 67.0902132,111.424112 66.3611064,111.1317 C65.6322964,110.840773 65.0136242,110.432762 64.4887623,109.907667 C63.9588536,109.384059 63.5631291,108.762385 63.2849641,108.042051 C63.0044242,107.319935 62.8651933,106.51788 62.8651933,105.635293 C62.8651933,104.773211 63.0044242,103.978585 63.2849641,103.244582 C63.5631291,102.509688 63.9588536,101.878801 64.4887623,101.348358 C65.0136242,100.817914 65.6322964,100.407526 66.3611064,100.116599 C67.0902132,99.8333988 67.8956151,99.6895698 68.7805774,99.6895698 C69.6750395,99.6895698 70.490238,99.8333988 71.2193449,100.116599 C71.9505298,100.407526 72.5736549,100.817914 73.0991106,101.348358 C73.6168477,101.878801 74.0196971,102.509688 74.3005339,103.244582 C74.5834487,103.978585 74.714961,104.773211 74.714961,105.635293" id="path80" sketch:type="MSShapeGroup"></path>
            <path d="M87.2124048,109.679413 C86.483298,110.406582 85.718567,110.903445 84.9054466,111.170004 C84.1021228,111.436266 83.2296289,111.570289 82.2944959,111.570289 C81.3427384,111.570289 80.4818223,111.42646 79.7096696,111.143259 C78.9375169,110.857682 78.278174,110.459477 77.7435154,109.943595 C77.2038101,109.429793 76.7914609,108.808119 76.5061712,108.077979 C76.2161315,107.348433 76.0697758,106.534789 76.0697758,105.635263 C76.0697758,104.773181 76.2161315,103.978556 76.4990463,103.244553 C76.789086,102.509658 77.1773888,101.883526 77.6669235,101.360512 C78.1558645,100.836903 78.7314908,100.428892 79.3979586,100.131131 C80.0596765,99.8363408 80.7671121,99.6895401 81.5054218,99.6895401 C82.2846993,99.6895401 82.953542,99.8503076 83.5339182,100.174814 C84.1044978,100.49843 84.5242686,100.97152 84.7831371,101.595571 L84.7831371,99.955802 L87.0420028,99.955802 L87.0420028,105.234088 L84.7831371,105.234088 C84.7831371,104.235903 84.5097221,103.4389 83.9608139,102.843377 C83.4190305,102.250825 82.7142667,101.948309 81.8411791,101.948309 C81.4935471,101.948309 81.1266187,102.02052 80.7501906,102.164349 C80.3642627,102.303721 80.011584,102.526596 79.6927482,102.826438 C79.3739123,103.126577 79.1076221,103.508437 78.8965492,103.971721 C78.6905231,104.435005 78.5848382,104.989222 78.5848382,105.642098 C78.5848382,106.273579 78.6881481,106.817989 78.8873463,107.278896 C79.0909975,107.737425 79.3620376,108.113936 79.6856233,108.411698 C80.011584,108.709459 80.3978087,108.930254 80.8437039,109.081513 C81.2970207,109.230096 81.7622123,109.30736 82.2342318,109.30736 C83.056852,109.30736 83.7642875,109.177498 84.3636632,108.923122 C84.9701637,108.669044 85.4881977,108.330571 85.9269681,107.907999 L87.2124048,109.679413 L87.2124048,109.679413 Z" id="path84" sketch:type="MSShapeGroup"></path>
            <path d="M100.821944,111.29006 L97.5682754,111.29006 L93.772526,106.705363 L92.6361168,107.872042 L92.6361168,111.29006 L90.1207575,111.29006 L90.1207575,95.4195432 L92.6361168,95.4195432 L92.6361168,104.75862 L97.1630511,99.955802 L100.615918,99.955802 L95.3883765,105.159796 L100.821944,111.29006 L100.821944,111.29006 Z" id="path88" sketch:type="MSShapeGroup"></path>
            <path d="M111.686319,104.369895 C111.552135,103.64035 111.17541,103.054633 110.556738,102.613042 C109.928566,102.171452 109.218756,101.948576 108.427604,101.948576 C107.634077,101.948576 106.924266,102.171452 106.288672,102.613042 C105.656048,103.054633 105.276948,103.64035 105.147513,104.369895 L111.686319,104.369895 L111.686319,104.369895 Z M105.037375,106.580523 C105.15731,107.365342 105.531363,108.013761 106.152113,108.532021 C106.768707,109.047903 107.60053,109.30733 108.650551,109.30733 C109.466047,109.30733 110.17556,109.177468 110.779686,108.923093 C111.381733,108.669015 111.902142,108.330541 112.345662,107.907969 L113.628427,109.679384 C112.899617,110.406552 112.127168,110.903416 111.309594,111.169975 C110.501818,111.436237 109.60973,111.570259 108.650551,111.570259 C107.775386,111.570259 106.960187,111.424053 106.202581,111.13164 C105.449428,110.840713 104.797506,110.432703 104.253348,109.907608 C103.701768,109.383999 103.272498,108.762325 102.958412,108.041992 C102.646701,107.320172 102.486095,106.518118 102.486095,105.635234 C102.486095,104.773151 102.632154,103.980903 102.917741,103.256112 C103.205405,102.531618 103.613005,101.904893 104.135492,101.372072 C104.655901,100.841628 105.284369,100.428863 106.013179,100.131101 C106.741989,99.8363111 107.542938,99.6895104 108.427604,99.6895104 C109.338987,99.6895104 110.17556,99.8434431 110.916542,100.157846 C111.664648,100.467197 112.299945,100.918892 112.83015,101.51382 C113.364512,102.103995 113.774486,102.826706 114.074323,103.683736 C114.376534,104.538092 114.527639,105.505074 114.527639,106.580523 L105.037375,106.580523 L105.037375,106.580523 Z" id="path92" sketch:type="MSShapeGroup"></path>
            <path d="M127.382037,107.689224 C127.252306,108.880271 126.787411,109.82348 125.984087,110.521526 C125.176014,111.220463 124.164289,111.570527 122.960491,111.570527 C122.301148,111.570527 121.691975,111.45998 121.138317,111.239482 C120.584659,111.020767 120.116796,110.716171 119.725821,110.327179 C119.339893,109.936106 119.037979,109.468068 118.828984,108.920983 C118.608411,108.371223 118.498273,107.773323 118.498273,107.125795 L118.498273,102.219563 L115.937493,102.219563 L115.937493,99.9560398 L118.498273,99.9560398 L118.498273,95.4194838 L121.018086,95.4194838 L121.018086,99.9560398 L125.768264,99.9560398 L125.768264,102.219563 L121.018086,102.219563 L121.018086,107.135007 C121.018086,107.86693 121.193238,108.411935 121.553041,108.769428 C121.910173,109.129891 122.378036,109.3073 122.960491,109.3073 C123.672676,109.3073 124.202585,109.100769 124.555263,108.685924 C124.897849,108.272564 125.104172,107.773323 125.176014,107.189983 L127.382037,107.689224 L127.382037,107.689224 Z" id="path96" sketch:type="MSShapeGroup"></path>
        </g>
    </g>
</svg>